<svg xmlns="http://www.w3.org/2000/svg" xmlns:xlink="http://www.w3.org/1999/xlink" width="600" height="600" viewBox="0 0 600 600"><defs><radialGradient id="radial-gradient" cx="0.5" cy="0.5" r="0.478" gradientTransform="translate(-0.049) scale(1.098 1)" gradientUnits="objectBoundingBox"><stop offset="0" stop-color="#ffc8af"></stop><stop offset="1" stop-color="#ffbb9c"></stop></radialGradient><radialGradient id="radial-gradient-2" cx="0.506" cy="0.49" r="0.451" gradientTransform="matrix(1.232, -0.21, 0.265, 0.978, -0.31, 0.174)" xlink:href="#radial-gradient"></radialGradient><radialGradient id="radial-gradient-3" cx="0.5" cy="0.5" r="0.531" gradientTransform="translate(0.054) scale(0.891 1)" xlink:href="#radial-gradient"></radialGradient><radialGradient id="radial-gradient-4" cx="0.5" cy="0.5" r="0.511" gradientTransform="translate(0.021) scale(0.958 1)" xlink:href="#radial-gradient"></radialGradient><radialGradient id="radial-gradient-5" cx="1.47" cy="-0.006" r="4.15" gradientTransform="translate(0.306) scale(0.387 1)" xlink:href="#radial-gradient"></radialGradient><radialGradient id="radial-gradient-6" cx="0.183" cy="0.438" r="1.813" gradientTransform="translate(0.33) scale(0.34 1)" xlink:href="#radial-gradient"></radialGradient><linearGradient id="linear-gradient" x1="4.513" y1="-3.241" x2="3.024" y2="-2.458" gradientUnits="objectBoundingBox"><stop offset="0" stop-color="#606bf1"></stop><stop offset="1" stop-color="#58479f"></stop></linearGradient><linearGradient id="linear-gradient-2" x1="8.927" y1="-5.136" x2="7.575" y2="-4.342" xlink:href="#linear-gradient"></linearGradient><linearGradient id="linear-gradient-3" x1="6.918" y1="-3.36" x2="5.26" y2="-2.587" xlink:href="#linear-gradient"></linearGradient><clipPath id="clip-PHP_1"><rect width="600" height="600"></rect></clipPath></defs><g id="PHP_1" data-name="PHP &#x2013; 1" clip-path="url(#clip-PHP_1)"><g id="OBJECTS" transform="translate(-32.418 45.671)"><g id="Group_26759" data-name="Group 26759" transform="translate(29.745 79.775)"><g id="Group_26753" data-name="Group 26753" transform="translate(82.891)"><g id="Group_26718" data-name="Group 26718" transform="translate(43.299 26.976)"><g id="Group_26681" data-name="Group 26681"><rect id="Rectangle_3481" data-name="Rectangle 3481" width="136.046" height="126.981" fill="#112b46"></rect></g><g id="Group_26682" data-name="Group 26682" style="mix-blend-mode: screen;isolation: isolate"><rect id="Rectangle_3482" data-name="Rectangle 3482" width="136.046" height="13.43" fill="#1d262d"></rect></g><g id="Group_26686" data-name="Group 26686" transform="translate(101.714 4.405)"><g id="Group_26683" data-name="Group 26683"><path id="Path_36195" data-name="Path 36195" d="M198.092,104.738a2.462,2.462,0,1,1-2.463-2.461A2.462,2.462,0,0,1,198.092,104.738Z" transform="translate(-193.168 -102.277)" fill="#606bf1"></path></g><g id="Group_26684" data-name="Group 26684" transform="translate(10.279)"><path id="Path_36196" data-name="Path 36196" d="M205.462,104.738A2.461,2.461,0,1,1,203,102.277,2.461,2.461,0,0,1,205.462,104.738Z" transform="translate(-200.539 -102.277)" fill="#fbd15b"></path></g><g id="Group_26685" data-name="Group 26685" transform="translate(19.824 0.259)"><path id="Path_36197" data-name="Path 36197" d="M212.306,104.924a2.461,2.461,0,1,1-2.461-2.461A2.461,2.461,0,0,1,212.306,104.924Z" transform="translate(-207.383 -102.463)" fill="#ff8578"></path></g></g><g id="Group_26710" data-name="Group 26710" transform="translate(24.19 25.913)"><g id="Group_26696" data-name="Group 26696"><g id="Group_26687" data-name="Group 26687"><rect id="Rectangle_3483" data-name="Rectangle 3483" width="19.268" height="1.62" fill="#ff8578"></rect></g><g id="Group_26688" data-name="Group 26688" transform="translate(22.616)"><rect id="Rectangle_3484" data-name="Rectangle 3484" width="19.268" height="1.62" fill="#fbd15b"></rect></g><g id="Group_26689" data-name="Group 26689" transform="translate(5.96 8.724)"><rect id="Rectangle_3485" data-name="Rectangle 3485" width="29.88" height="1.62" fill="#606bf1"></rect></g><g id="Group_26690" data-name="Group 26690" transform="translate(40.78 8.724)"><rect id="Rectangle_3486" data-name="Rectangle 3486" width="15.188" height="1.62" fill="#ff8578"></rect></g><g id="Group_26691" data-name="Group 26691" transform="translate(16.325 17.448)"><rect id="Rectangle_3487" data-name="Rectangle 3487" width="13.123" height="1.62" fill="#fbd15b"></rect></g><g id="Group_26692" data-name="Group 26692" transform="translate(37.032 17.448)"><rect id="Rectangle_3488" data-name="Rectangle 3488" width="43.535" height="1.62" fill="#fbd15b"></rect></g><g id="Group_26693" data-name="Group 26693" transform="translate(26.518 26.172)"><rect id="Rectangle_3489" data-name="Rectangle 3489" width="49.754" height="1.62" fill="#606bf1"></rect></g><g id="Group_26694" data-name="Group 26694" transform="translate(14.078 34.896)"><rect id="Rectangle_3490" data-name="Rectangle 3490" width="15.312" height="1.62" fill="#ff8578"></rect></g><g id="Group_26695" data-name="Group 26695" transform="translate(35.942 34.896)"><rect id="Rectangle_3491" data-name="Rectangle 3491" width="15.312" height="1.62" fill="#606bf1"></rect></g></g><g id="Group_26709" data-name="Group 26709" transform="translate(0 45.262)"><g id="Group_26697" data-name="Group 26697" transform="translate(0 34.896)"><rect id="Rectangle_3492" data-name="Rectangle 3492" width="22.276" height="1.62" fill="#ff8578"></rect></g><g id="Group_26698" data-name="Group 26698" transform="translate(30.077 34.896)"><rect id="Rectangle_3493" data-name="Rectangle 3493" width="22.276" height="1.62" fill="#fbd15b"></rect></g><g id="Group_26699" data-name="Group 26699" transform="translate(59.345 34.896)"><rect id="Rectangle_3494" data-name="Rectangle 3494" width="22.276" height="1.62" fill="#ff8578"></rect></g><g id="Group_26700" data-name="Group 26700" transform="translate(5.96 26.172)"><rect id="Rectangle_3495" data-name="Rectangle 3495" width="43.535" height="1.62" fill="#606bf1"></rect></g><g id="Group_26701" data-name="Group 26701" transform="translate(56.282 26.172)"><rect id="Rectangle_3496" data-name="Rectangle 3496" width="43.535" height="1.62" fill="#ff8578"></rect></g><g id="Group_26702" data-name="Group 26702" transform="translate(16.325 17.448)"><rect id="Rectangle_3497" data-name="Rectangle 3497" width="43.201" height="1.62" fill="#ff8578"></rect></g><g id="Group_26703" data-name="Group 26703" transform="translate(63.292 17.448)"><rect id="Rectangle_3498" data-name="Rectangle 3498" width="12.024" height="1.62" fill="#fbd15b"></rect></g><g id="Group_26704" data-name="Group 26704" transform="translate(13.503 8.724)"><rect id="Rectangle_3499" data-name="Rectangle 3499" width="16.263" height="1.62" fill="#fbd15b"></rect></g><g id="Group_26705" data-name="Group 26705" transform="translate(38.404 8.724)"><rect id="Rectangle_3500" data-name="Rectangle 3500" width="16.263" height="1.62" fill="#606bf1"></rect></g><g id="Group_26706" data-name="Group 26706" transform="translate(65.127 8.724)"><rect id="Rectangle_3501" data-name="Rectangle 3501" width="16.263" height="1.62" fill="#ff8578"></rect></g><g id="Group_26707" data-name="Group 26707" transform="translate(32.356)"><rect id="Rectangle_3502" data-name="Rectangle 3502" width="22.804" height="1.62" fill="#fbd15b"></rect></g><g id="Group_26708" data-name="Group 26708" transform="translate(0.948)"><rect id="Rectangle_3503" data-name="Rectangle 3503" width="22.804" height="1.62" fill="#606bf1"></rect></g></g></g><g id="Group_26717" data-name="Group 26717" transform="translate(11.58 24.358)"><g id="Group_26712" data-name="Group 26712" transform="translate(0)"><g id="Group_26711" data-name="Group 26711"><rect id="Rectangle_3504" data-name="Rectangle 3504" width="2.073" height="2.073" fill="#f9fbfc"></rect></g></g><g id="Group_26714" data-name="Group 26714" transform="translate(0 8.415)"><g id="Group_26713" data-name="Group 26713"><path id="Path_36198" data-name="Path 36198" d="M130.609,190.265h-2.074v-4.227h2.074Zm0-10.569h-2.074v-4.227h2.074Zm0-10.571h-2.074V164.9h2.074Zm0-10.569h-2.074v-4.228h2.074Zm0-10.569h-2.074v-4.228h2.074Zm0-10.569h-2.074v-4.228h2.074Zm0-10.571h-2.074v-4.227h2.074Z" transform="translate(-128.535 -122.619)" fill="#f9fbfc"></path></g></g><g id="Group_26716" data-name="Group 26716" transform="translate(0 82.404)"><g id="Group_26715" data-name="Group 26715"><rect id="Rectangle_3505" data-name="Rectangle 3505" width="2.073" height="2.073" fill="#f9fbfc"></rect></g></g></g></g><g id="Group_26721" data-name="Group 26721" transform="translate(208.617)"><g id="Group_26719" data-name="Group 26719"><rect id="Rectangle_3506" data-name="Rectangle 3506" width="112.025" height="69.052" fill="#ff8578"></rect></g><g id="Group_26720" data-name="Group 26720" transform="translate(25.78 13.575)"><path id="Path_36199" data-name="Path 36199" d="M274.991,100.806l-13.329,5.688,13.329,5.6-1.745,4.027-15.984-7.14v-4.941l15.984-7.183Z" transform="translate(-257.262 -86.608)" fill="#f9fbfc"></path><path id="Path_36200" data-name="Path 36200" d="M288.1,90.547l-9.673,37.16-4.609-1.079,9.716-37.118Z" transform="translate(-250.73 -89.509)" fill="#f9fbfc"></path><path id="Path_36201" data-name="Path 36201" d="M305.662,104.045v4.941l-15.986,7.14-1.742-4.027,13.286-5.6-13.286-5.688,1.742-3.944Z" transform="translate(-245.16 -86.608)" fill="#f9fbfc"></path></g></g><g id="Group_26724" data-name="Group 26724" transform="translate(316.794 133.774)"><g id="Group_26722" data-name="Group 26722" transform="translate(0 0)"><rect id="Rectangle_3507" data-name="Rectangle 3507" width="63.806" height="45.457" fill="#606bf1"></rect></g><g id="Group_26723" data-name="Group 26723" transform="translate(17.861 6.816)"><path id="Path_36202" data-name="Path 36202" d="M337.984,183.585c-2.053,0-2.736.554-2.736,2.085v6.842c0,2.672-1.109,3.486-2.965,4.008,1.856.488,2.965,1.3,2.965,3.941V207.3c0,1.531.717,2.085,2.736,2.085v3c-5.179,0-6.646-1.662-6.646-5.115v-6.483c0-1.858-.488-2.574-2.182-2.574v-3.421c1.694,0,2.182-.749,2.182-2.606V185.7c0-3.486,1.467-5.115,6.646-5.115Z" transform="translate(-329.155 -180.588)" fill="#f1f2f2"></path><path id="Path_36203" data-name="Path 36203" d="M349.608,185.7v6.482c0,1.858.488,2.606,2.216,2.606v3.421c-1.728,0-2.216.717-2.216,2.574v6.483c0,3.453-1.466,5.115-6.646,5.115v-3c2.021,0,2.738-.554,2.738-2.085v-6.842c0-2.639,1.107-3.453,2.965-3.941-1.858-.522-2.965-1.336-2.965-4.008V185.67c0-1.531-.685-2.085-2.738-2.085v-3C348.143,180.588,349.608,182.217,349.608,185.7Z" transform="translate(-323.707 -180.588)" fill="#f1f2f2"></path></g></g><g id="Group_26728" data-name="Group 26728" transform="translate(0 9.903)"><g id="Group_26725" data-name="Group 26725"><rect id="Rectangle_3508" data-name="Rectangle 3508" width="71.582" height="47.878" fill="#fbd15b"></rect></g><g id="Group_26727" data-name="Group 26727" transform="translate(21.161 9.304)"><g id="Group_26726" data-name="Group 26726"><path id="Path_36204" data-name="Path 36204" d="M106.887,97.987a11.749,11.749,0,0,0,15.721,17.079l7.512,7.514a.814.814,0,0,0,1.149,0l2.11-2.111a.81.81,0,0,0,0-1.148l-7.513-7.514a11.749,11.749,0,0,0-18.98-13.82Zm15.079,13.179a8.307,8.307,0,1,1,0-11.748A8.317,8.317,0,0,1,121.966,111.166Z" transform="translate(-104.357 -93.548)" fill="#f9fbfc"></path></g></g></g><g id="Group_26752" data-name="Group 26752" transform="translate(0.21 84.334)"><g id="Group_26732" data-name="Group 26732" transform="translate(214.441)"><path id="Path_36205" data-name="Path 36205" d="M299.537,198.47c-.156,1.581-2.318,18.092-19.3,18.092-17.824,0-14.838-17.647-14.838-17.647l-.022-.11a17.768,17.768,0,0,1,5.592-.268V190.18L291.2,178.862h.735v19.5A36.769,36.769,0,0,1,299.537,198.47Z" transform="translate(-234.379 -125.013)" fill="url(#radial-gradient)"></path><g id="Group_26731" data-name="Group 26731"><g id="Group_26730" data-name="Group 26730" transform="translate(12.264 9.212)"><g id="Group_26729" data-name="Group 26729"><path id="Path_36206" data-name="Path 36206" d="M294.965,154.194a23.118,23.118,0,0,1,6.08,11.274c1.944,8.571.114,17.64-2.372,25.9a13.014,13.014,0,0,1-1.781,4.027,14.325,14.325,0,0,1-2.217,2.24q-5.4,4.7-10.788,9.412c-2.434,2.131-17.417,3.9-20.276,1.86-11.02-7.878-13.14-30.705-10.935-42.375C256.336,147.172,281.219,140.251,294.965,154.194Z" transform="translate(-251.897 -146.854)" fill="url(#radial-gradient-2)"></path></g></g><path id="Path_36207" data-name="Path 36207" d="M278.358,170.747c.146-1.863,2.063-3.9,3.986-2.694,1.991,1.252,1.523,4.562.7,6.383-.647,1.428-2.811,2.991-4.277,1.664-1.229-1.114.681-2.427.743-3.443.057-.915-1.772-1.57-1.024-2.549" transform="translate(-229.215 -129.421)" fill="#f7b094"></path><path id="Path_36208" data-name="Path 36208" d="M278.621,178.81c2.008.6,5.409-.929,6.271-3.726a21.428,21.428,0,0,0,.768-5.991,14.358,14.358,0,0,1,.491,6.606c-.52,4.075-1.948,7.956-5.146,8.008S278.621,178.81,278.621,178.81Z" transform="translate(-229.126 -128.867)" fill="#f7b094"></path><path id="Path_36209" data-name="Path 36209" d="M290.135,187.292a.706.706,0,0,1-.225.067c-1.244.174-1.74-1.33-1.924-2.272a41.92,41.92,0,0,1-.441-6.649,5.007,5.007,0,0,0-.2-1.777c-.7-1.6-2.56-2.64-3.129-4.292-.66-1.922,1.2-3.839.464-5.942-1.134-3.223-5.271-3.965-8.264-3.928a93.973,93.973,0,0,0-13.3,1.573c-4.679.725-10.659,1.415-14.782-1.544-4.969-3.566-7.044-12.861-3.336-17.949,2.022-2.774,5.854-4.251,9.214-4.327,3.559-.081,6.567,2.04,9.833,3.108,2.6.851,5.117-1.637,7.547-2.124,3.056-.611,4.354,2.725,7.058,2.817,2.626.089,5.2-1.962,7.757-2.428,5.09-.93,4.79,4.184,8.206,5.93,2.124,1.085,4.866.428,7.013,1.531,1.632.838,1.86,2.311,2.216,3.98a39.259,39.259,0,0,0,.8,4.478c.428,1.233,1.463,2.011,2.27,2.975a10.918,10.918,0,0,1,1.891,3.6,22.427,22.427,0,0,1,.941,9.144c-.455,5.14-2.109,10.2-3.825,15.042-1.114,3.143-1.528,6.414-3.242,9.387-.46.8-2.5,3.134-3.265,1.395a2.549,2.549,0,0,1-.11-1.2c.226-3.238,3.242-24.108-4.663-21.6a5.6,5.6,0,0,0-3.392,3.482,13.562,13.562,0,0,0-.7,5.773c.014.284.021.57.01.855A.974.974,0,0,1,290.135,187.292Z" transform="translate(-243.103 -140.248)" fill="#3d3d7a"></path></g></g><path id="Path_36210" data-name="Path 36210" d="M269.5,194.017c8.989-1.445,14.92-8.546,14.92-8.546s-2.425,11.967-15.46,12.6Z" transform="translate(-18.462 -122.405)" fill="#f7b094"></path><g id="Group_26734" data-name="Group 26734" transform="translate(205.451 234.735)"><path id="Rectangle_3509" data-name="Rectangle 3509" d="M1.626,0h9.615a1.626,1.626,0,0,1,1.626,1.626v124.1a0,0,0,0,1,0,0H0a0,0,0,0,1,0,0V1.626A1.626,1.626,0,0,1,1.626,0Z" transform="translate(73.205 125.721) rotate(180)" fill="#0a2033"></path><path id="Rectangle_3510" data-name="Rectangle 3510" d="M6.314,0H64.449a6.314,6.314,0,0,1,6.314,6.314v4.423a0,0,0,0,1,0,0H0a0,0,0,0,1,0,0V6.314A6.314,6.314,0,0,1,6.314,0Z" transform="translate(102.153 12.502) rotate(180)" fill="#30475e"></path><g id="Group_26733" data-name="Group 26733" transform="translate(0 101.496)"><path id="Rectangle_3511" data-name="Rectangle 3511" d="M1.626,0h9.615a1.626,1.626,0,0,1,1.626,1.626V30.875a0,0,0,0,1,0,0H0a0,0,0,0,1,0,0V1.626A1.626,1.626,0,0,1,1.626,0Z" transform="translate(73.205 40.464) rotate(180)" fill="#0a2033"></path><path id="Path_36211" data-name="Path 36211" d="M236.657,407.1a7.531,7.531,0,1,0,7.531-7.531A7.53,7.53,0,0,0,236.657,407.1Z" transform="translate(-236.657 -374.163)" fill="#0a2033"></path><path id="Path_36212" data-name="Path 36212" d="M321.617,407.1a7.531,7.531,0,1,0,7.531-7.531A7.529,7.529,0,0,0,321.617,407.1Z" transform="translate(-203.135 -374.163)" fill="#0a2033"></path><rect id="Rectangle_3512" data-name="Rectangle 3512" width="25.886" height="22.62" transform="translate(79.715 22.62) rotate(180)" fill="#30475e"></rect><path id="Rectangle_3513" data-name="Rectangle 3513" d="M0,0H133.543a0,0,0,0,1,0,0V4.893a5.751,5.751,0,0,1-5.751,5.751H5.751A5.751,5.751,0,0,1,0,4.893V0A0,0,0,0,1,0,0Z" transform="translate(133.543 27.942) rotate(180)" fill="#fbd15b"></path></g><rect id="Rectangle_3514" data-name="Rectangle 3514" width="4.463" height="84.438" transform="translate(62.308 15.039)" fill="#30475e"></rect></g><path id="Path_36213" data-name="Path 36213" d="M346.54,244.4a5.248,5.248,0,0,0-5.419,5.542c.884,15.326-2.365,52.714-16.64,65.472-17.454,15.6-66.925,13.471-66.925,13.471s-8.169,10.027,8.171,12.255,62.387.742,73.527-9.656c10.784-10.065,17.187-36.434,12.361-82.332a5.283,5.283,0,0,0-5.075-4.753Z" transform="translate(-23.766 -99.154)" fill="#fbd15b"></path><g id="Group_26736" data-name="Group 26736" transform="translate(127.287 87.45)"><g id="Group_26735" data-name="Group 26735"><path id="Path_36214" data-name="Path 36214" d="M259.431,379.9l5.882,13.413-18.026,7.91-5.9-13.458Z" transform="translate(-156.628 -133.14)" fill="url(#radial-gradient-3)"></path><path id="Path_36215" data-name="Path 36215" d="M356.473,273c-1.114,2.228-81.2.045-88.768.736,0,0-49.019,23.4-56.059,45.3a23.928,23.928,0,0,0-.692,8.6C212.915,358.47,248.03,432.31,248.03,432.31l5.393-2.361,18.047-7.865,2.563-1.114s-27.852-83-22.281-87.453,68.692-15.6,90.595-21.524C364.271,306.043,356.473,273,356.473,273Z" transform="translate(-168.668 -175.32)" fill="#56548c"></path><path id="Path_36216" data-name="Path 36216" d="M210.614,382.39l1.408,20.151H192.348l-1.408-20.2Z" transform="translate(-176.531 -132.176)" fill="url(#radial-gradient-4)"></path><path id="Path_36217" data-name="Path 36217" d="M279.244,273.031l-.714.312s-82.062,11.519-95.43,34.536c-8.69,14.972,8.13,124.38,8.13,124.38l29.032.067s-4.343-91.136-2.894-96.216c1.626-5.793,4.411-7.888,5.525-8.49a23.928,23.928,0,0,1,.692-8.6c7.04-21.9,56.059-45.3,56.059-45.3A1.4,1.4,0,0,1,279.244,273.031Z" transform="translate(-180.608 -175.307)" fill="#3d3d7a"></path><path id="Path_36218" data-name="Path 36218" d="M330.937,218.661l-5.5.757a268.993,268.993,0,0,1-4.612,29.679l-68.559,26.024-.936,4.969c-.289-.022-.579-.045-.846-.067.022,1.025.022,2.028.067,2.963.156,5.726.536,9.848,1.137,11.5a1.41,1.41,0,0,0,.4.692c1.862,1.519,26.11-1.425,52.324,8.2,22.736,8.348,35.478,17.467,36.068,16.242C347.62,304.763,334.613,246.469,330.937,218.661Z" transform="translate(-153.039 -196.759)" fill="#ff8578"></path><path id="Path_36219" data-name="Path 36219" d="M323.784,252.448c-1.827,8.779-6.55,26.247-15.82,28.587-12.1,3.075-35.493,2.919-57.418,1.738-.045-.936-.045-1.938-.067-2.963.268.022.558.045.846.067l.936-4.969,68.559-26.024a268.993,268.993,0,0,0,4.612-29.679,1.932,1.932,0,0,0,.022.245C325.589,221.745,326.524,239.481,323.784,252.448Z" transform="translate(-153.039 -196.545)" fill="#f4675d"></path><path id="Path_36220" data-name="Path 36220" d="M258.846,202.956c-1.226,2.227-2.986,26.069-3.944,49.731l-14.014-13.08C246.836,228.089,258.846,202.956,258.846,202.956Z" transform="translate(-156.823 -202.956)" fill="#f4675d"></path><path id="Path_36221" data-name="Path 36221" d="M263.565,263.75c-11.831,2.05-22.7,3.81-22.7,3.81l-.022.579c-13.169-10.516-33.2-40.306-33.2-40.306s5.994-7.2,7.486-9.091c.223-.29,32.888,22.192,34.559,21.991.424-.043,2.095-2.986,4.323-7.352l14.014,13.08c-.223,5.637-.4,11.251-.512,16.577C266.194,263.281,264.879,263.5,263.565,263.75Z" transform="translate(-169.942 -196.729)" fill="#f7b094"></path><path id="Path_36222" data-name="Path 36222" d="M241.629,254.926l-.29,9.759H205.69s3.542-13.926,13.19-13.926,13.37,5.1,13.37,5.1Z" transform="translate(-170.711 -184.095)" fill="url(#radial-gradient-5)"></path><path id="Path_36223" data-name="Path 36223" d="M221.273,221.42l.266.223c-1.492,1.894-7.486,9.091-7.486,9.091l-3.721-2.63a9.25,9.25,0,0,1-8.868-.112c-4.969-2.7-1.894-9.133-1.639-9.9-.964.272-6.917,5.083-7.853,4.571s-1.627-2.206,5.034-8.779c6.641-6.573,15.686,1.871,15.954,1.871Z" transform="translate(-176.356 -199.63)" fill="#f7b094"></path><path id="Path_36224" data-name="Path 36224" d="M199.282,223.509s-1.436,2.69,1.117,3.859a25.444,25.444,0,0,0,9.656,1.807c2.134-.206,3.831-3.192,3.831-3.192l-6.464-6.065h-5.168Z" transform="translate(-173.398 -196.263)" fill="#f7b094"></path><path id="Path_36225" data-name="Path 36225" d="M199.293,224.864c.384-1.321,4.054-.616,6.329-.563,1.676.04,2.594-.4,3.113-1.675s-1.916-3.312-2.394-2.673.877,1.537.918,2.383-2.394,1.128-4.269,1.128a45.652,45.652,0,0,0-5.111.488Z" transform="translate(-173.793 -196.298)" fill="#e8987c"></path></g></g><path id="Path_36226" data-name="Path 36226" d="M324.923,253.06l-34.914-12.366c-2.54,4.746-5.259,8.31-7.955,9.023-4.078,1.07-13.925,2.919-23.862,4.658-1.315.244-2.63.467-3.944.713-11.831,2.05-22.7,3.81-22.7,3.81l-.022.579v.379l-.268,8.8v2.233a246.737,246.737,0,0,1,26.8.441c20.921,1.494,47.9,2.385,56.84-1.827,4.188-1.983,7.531-8.489,10.159-16.51Z" transform="translate(-33.338 -100.616)" fill="url(#radial-gradient-6)"></path><path id="Path_36227" data-name="Path 36227" d="M273.731,240.694l34.915,12.366-1.581,4.666L272.508,242.9Z" transform="translate(-17.06 -100.617)" fill="#f7b094"></path><path id="Path_36228" data-name="Path 36228" d="M282.387,259.543c-2.54,4.746-5.259,8.31-7.955,9.023-4.078,1.07-13.925,2.919-23.862,4.658.112-5.326.289-10.94.512-16.577.958-23.663,2.718-47.5,3.944-49.731,2.005-3.722,7.486-11.809,16.132-13.658l.022.11s-2.986,17.647,14.838,17.647c16.979,0,19.14-16.51,19.3-18.092,8.734.98,22.125,5.347,23.974,22.9.379,3.477.913,7.932,1.6,12.99l-5.5.757s-2.229,24.733-7.955,42.268l-.134.067Z" transform="translate(-25.716 -119.465)" fill="#ff8578"></path><path id="Path_36229" data-name="Path 36229" d="M273.126,247.935l13.942-33.749L276.8,249.3Z" transform="translate(-16.817 -111.076)" fill="#6d4b35" style="mix-blend-mode: screen;isolation: isolate"></path><path id="Path_36230" data-name="Path 36230" d="M304.355,192.922h-7.6s-10.812,11.872-17.763,11.872-3.2-11.8-3.2-11.8H272.4a19.167,19.167,0,0,0-19.041,16.993c-.126,1.109-.241,2.16-.34,3.111-.743,7.182,28.351,12.409,28.351,12.409l14.98-.838,9.1-17.749,1.813-7.268Z" transform="translate(-24.756 -119.465)" fill="#ff8578"></path><g id="Group_26740" data-name="Group 26740" transform="translate(187.891 346.438)"><g id="Group_26739" data-name="Group 26739"><g id="Group_26738" data-name="Group 26738"><g id="Group_26737" data-name="Group 26737"><path id="Path_36231" data-name="Path 36231" d="M224.09,409.21c.678,3.631,3.194,6.211,6.824,5.534l48.391-9.026a2.255,2.255,0,0,0,1.8-2.63l-.8-4.294s-50.895,8.907-56.243,10.389Z" transform="translate(-224.065 -384.674)" fill="#f1f2f2"></path><path id="Path_36232" data-name="Path 36232" d="M238.488,401.021c.5-.438.99-.872,1.495-1.31.971-.869,1.926-1.715,2.845-2.534.485-.434.971-.869,1.421-1.276.884-.792,1.717-1.534,2.463-2.2.537-.485,1.038-.943,1.488-1.35.827-.742,1.5-1.347,1.976-1.771a1.1,1.1,0,0,1,1.441-.029c1.989,1.672,8.419,5.5,20.065-1.71a1.117,1.117,0,0,1,1.584.413l7.043,13.534s-50.895,8.907-56.243,10.389C225.824,412.082,232.321,406.459,238.488,401.021Z" transform="translate(-224.065 -388.669)" fill="#3d3d7a"></path></g></g></g></g><g id="Group_26744" data-name="Group 26744" transform="translate(111.682 352.142)"><g id="Group_26743" data-name="Group 26743"><g id="Group_26742" data-name="Group 26742"><g id="Group_26741" data-name="Group 26741"><path id="Path_36233" data-name="Path 36233" d="M169.438,406.3c.091,3.691,2.163,6.639,5.854,6.55l49.213-1.2a2.256,2.256,0,0,0,2.2-2.309l-.107-4.365s-51.664.683-57.178,1.3Z" transform="translate(-169.418 -387.941)" fill="#f1f2f2"></path><path id="Path_36234" data-name="Path 36234" d="M185.592,401.381c.568-.351,1.117-.7,1.685-1.056,1.1-.7,2.174-1.385,3.213-2.047.548-.351,1.1-.7,1.605-1.033,1-.642,1.94-1.241,2.782-1.779.607-.393,1.174-.764,1.683-1.095.934-.6,1.7-1.091,2.234-1.434a1.092,1.092,0,0,1,1.425.2c1.7,1.968,7.437,6.768,20.082,1.509a1.118,1.118,0,0,1,1.5.66l4.8,14.485s-51.664.683-57.178,1.3C171.327,410.284,178.637,405.769,185.592,401.381Z" transform="translate(-169.418 -392.759)" fill="#3d3d7a"></path></g></g></g></g><g id="Group_26746" data-name="Group 26746" transform="translate(50.411 100.177)"><path id="Path_36235" data-name="Path 36235" d="M151.765,282.178l-26.282-70.1h74.824l26.282,70.1Z" transform="translate(-125.483 -212.082)" fill="#abb5ba"></path><path id="Path_36236" data-name="Path 36236" d="M210.044,282.178h-4.625l-26.282-70.1,4.2.187,24.309,63.447Z" transform="translate(-104.313 -212.082)" fill="#8495a0"></path><path id="Path_36237" data-name="Path 36237" d="M128.369,256.914h94.2" transform="translate(-124.344 -194.394)" fill="none"></path><g id="Group_26745" data-name="Group 26745" transform="translate(103.269 65.676)"><path id="Path_36238" data-name="Path 36238" d="M200.545,263.6h49.441l-.134-4.419H199.534" transform="translate(-199.534 -259.177)" fill="#8495a0"></path></g></g><g id="Group_26751" data-name="Group 26751" transform="translate(0 170.273)"><g id="Group_26747" data-name="Group 26747" transform="translate(353.426 13.368)"><rect id="Rectangle_3515" data-name="Rectangle 3515" width="11.904" height="195.565" fill="#8495a0"></rect></g><g id="Group_26748" data-name="Group 26748" transform="translate(288.811 13.368)"><rect id="Rectangle_3516" data-name="Rectangle 3516" width="11.904" height="195.565" fill="#abb5ba"></rect></g><g id="Group_26749" data-name="Group 26749" transform="translate(81.804 13.368)"><rect id="Rectangle_3517" data-name="Rectangle 3517" width="11.904" height="195.565" fill="#8495a0"></rect></g><g id="Group_26750" data-name="Group 26750" transform="translate(17.189 13.368)"><rect id="Rectangle_3518" data-name="Rectangle 3518" width="11.904" height="195.565" fill="#abb5ba"></rect></g><rect id="Rectangle_3519" data-name="Rectangle 3519" width="383.028" height="14.111" rx="4.149" fill="#141b56"></rect></g><path id="Path_36239" data-name="Path 36239" d="M134.441,217.366l1.28,3.413h14.905l-1.28-3.413Z" transform="translate(-71.536 -109.821)" fill="#8495a0"></path><path id="Path_36240" data-name="Path 36240" d="M241.19,229.238l-1.07,2.067L255.2,246.894v-4.577Z" transform="translate(-29.839 -105.136)" fill="#e8987c"></path></g></g><g id="Group_26758" data-name="Group 26758" transform="translate(0 283.473)"><rect id="Rectangle_3520" data-name="Rectangle 3520" width="602.333" height="13.753" transform="translate(0 177.553)" fill="#a5b7c6"></rect><g id="Group_26757" data-name="Group 26757" transform="translate(423.344)"><g id="Group_26754" data-name="Group 26754" transform="translate(52.08 21.934)"><path id="Path_36241" data-name="Path 36241" d="M402.071,352.383c-2.393,11.61-1.672,31.386-17.032,34.518-4.135.844-8.13-2.023-10.535-5.309-3.146-4.3-3.9-13.4-3.845-18.6.045-4.125,1.45-8.726,1.9-12.887.49-4.495.887-9,1.411-13.491,1.89-16.188,10.346-29.756,24.65-37.836,1.107,5.313,3.631,9.811,5.856,14.913a52.815,52.815,0,0,1,2.59,7.217c1.17,4.316-.245,8.678-1.294,12.813C404.224,339.829,403.345,346.2,402.071,352.383Z" transform="translate(-370.657 -298.773)" fill="url(#linear-gradient)"></path><path id="Path_36242" data-name="Path 36242" d="M381.655,385.653c.109-.973.23-1.947.358-2.92,1.835,0,3.746-1.047,5.287-1.846a28.079,28.079,0,0,0,6.937-5.493c.113-.113-.077-.3-.2-.2a31.25,31.25,0,0,1-6.755,4.623,19.005,19.005,0,0,1-5.132,1.911q.243-1.742.533-3.479c1.911-.234,3.661-1.489,5.28-2.449a60.357,60.357,0,0,0,7.567-5.778.028.028,0,0,0-.035-.043c-3.75,2.724-7.928,6.6-12.672,7.45.251-1.45.517-2.9.821-4.334.015-.075.032-.149.049-.225,5.49-1.389,9.2-5.7,13.409-9.176.068-.057-.006-.173-.077-.117-4.14,3.214-8.03,6.885-13.148,8.444.444-2.056.905-4.1,1.37-6.153a29.307,29.307,0,0,0,12.407-8.8c.059-.068-.038-.163-.1-.1-3.594,3.74-7.552,5.888-12.109,8.017.46-2.028.915-4.054,1.347-6.086,2.149-1.058,4.41-1.7,6.394-3.09a17.5,17.5,0,0,0,4.976-5.046.1.1,0,0,0-.165-.1c-2.781,4-6.971,5.239-11.021,7.341.395-1.894.763-3.795,1.092-5.705,4.514-2.485,9.418-4.789,11.975-9.551.025-.046-.04-.093-.07-.046-2.71,4.375-7.446,6.26-11.744,8.642.056-.34.117-.679.17-1.021.278-1.771.536-3.546.789-5.32a43.32,43.32,0,0,0,7.4-4.025,14.083,14.083,0,0,0,4.51-3.841.1.1,0,0,0-.16-.113c-2.421,3.468-7.722,5.474-11.638,7.208q.381-2.688.761-5.377c4.344-2.629,9.457-4.083,12.13-8.821a.127.127,0,0,0-.215-.134c-2.768,4.327-7.644,5.662-11.8,8.118q.241-1.665.489-3.329c4.691-1.725,10.147-5.654,12.622-9.894a.21.21,0,0,0-.354-.226,26.336,26.336,0,0,1-12.13,9.239c.278-1.8.568-3.592.887-5.384a.471.471,0,0,0,.07-.158,26.9,26.9,0,0,0,6.008-3.228,16.42,16.42,0,0,0,5.649-5.147c.151-.245-.25-.473-.39-.22-2.085,3.719-7.03,6.211-11.124,7.632.12-.653.238-1.307.368-1.959.192-.976.392-1.951.591-2.926,1.676-1.157,3.8-1.711,5.488-2.934a31.052,31.052,0,0,0,3.994-3.64c.126-.13-.06-.328-.191-.2a26.425,26.425,0,0,1-5.514,4.235c-1.156.618-2.474.971-3.594,1.65.328-1.594.654-3.188.966-4.785.02,0,.039-.008.059-.013l.06.013a.3.3,0,0,0,.276-.085c2.279-.575,4.023-2.538,5.555-4.21a.042.042,0,0,0-.059-.06c-1.608,1.487-3.433,3.131-5.587,3.77a.153.153,0,0,0-.022-.01l-.165-.025q.377-1.95.7-3.9a.3.3,0,0,0,.269-.335,24,24,0,0,0,3.337-2.857.084.084,0,0,0-.114-.123A19.467,19.467,0,0,1,395,311.256a80.538,80.538,0,0,0,.906-8.139c.014-.254-.37-.257-.392-.007-.238,2.633-.622,5.241-1.074,7.836a24.208,24.208,0,0,1-3.425-5.237c-.04-.1-.2-.059-.162.047A14.938,14.938,0,0,0,392.518,309a19.71,19.71,0,0,0,1.766,2.848q-.381,2.09-.814,4.171a7.69,7.69,0,0,1-4.192-1.643,7.612,7.612,0,0,1-2.577-5.239c-.018-.251-.414-.25-.392,0a8.668,8.668,0,0,0,2.23,5.1,8.157,8.157,0,0,0,4.813,2.347q-.5,2.4-1.033,4.8a37.387,37.387,0,0,1-3.93-2.919c-2.019-1.609-3.212-3.546-4.965-5.358-.176-.181-.463.081-.289.265,1.643,1.746,2.753,3.637,4.623,5.207a26.637,26.637,0,0,0,4.435,3.38l-.056.254c-.018.015-.036.028-.053.045a.257.257,0,0,0-.036.358c-.338,1.531-.674,3.064-1,4.6-.021.1-.038.194-.057.29-3.573-1.636-8.911-4.478-9.384-8.623a.279.279,0,1,0-.544.12c1.057,4.69,6.213,6.768,9.763,9.325q-.525,2.6-.965,5.224a21.143,21.143,0,0,1-6.439-3.316c-1.763-1.4-4.255-3.092-5.048-5.263-.025-.068-.125-.024-.1.045.735,2.157,2.972,3.64,4.6,5.112a17.2,17.2,0,0,0,6.833,4.2.471.471,0,0,0-.007.233q-.272,1.661-.527,3.325c-4.339-.333-10.409-3.629-12.626-6.91-.011-.015-.032,0-.022.017,1.512,2.5,3.8,3.968,6.376,5.238,1.924.948,4.005,2.071,6.183,2.233-.311,2.053-.612,4.108-.919,6.161-1.883-.7-3.877-1.038-5.739-1.784a14.21,14.21,0,0,1-6.515-5.546c-.1-.148-.344-.024-.247.131,3,4.775,7.324,6.175,12.386,7.964q-.381,2.527-.795,5.05c-4.142-.795-9.5-3.323-11.6-6.921-.155-.264-.575-.045-.421.222,1.325,2.307,3.6,3.764,5.932,4.94,1.676.846,3.984,2.249,5.981,2.4-.01.054-.018.11-.028.165-.409,2.421-.887,4.828-1.4,7.227-4.627-1.163-7.619-4.592-10.982-7.8-.234-.223-.6.119-.367.346,3.426,3.373,6.436,6.911,11.2,8.158q-.64,2.929-1.353,5.842a21.381,21.381,0,0,1-10.392-7.112c-.181-.227-.5.081-.326.308a23.015,23.015,0,0,0,10.537,7.559q-.768,3.125-1.576,6.242c-4.05-.616-7.169-3.152-9.663-6.355-.059-.075-.188.022-.133.1,2.215,3.082,5.567,6.642,9.6,7.015q-.257,1-.513,1.99c-.1.4-.212.806-.322,1.215a22.971,22.971,0,0,1-8.406-4.053c-.071-.057-.152.052-.085.112a21.918,21.918,0,0,0,8.326,4.552c-.34,1.248-.7,2.531-1.053,3.839a17.083,17.083,0,0,0-2.319-.987c-1.519-.456-2.5-1.418-3.824-2.213-.121-.073-.258.1-.137.178,1.16.757,1.976,1.732,3.3,2.231.98.37,1.9.84,2.852,1.261-1.392,5.188-2.622,10.7-1.954,15.681.148,1.1,2,1.4,2.286.222C381.289,393.2,381.243,389.343,381.655,385.653Z" transform="translate(-369.872 -297.135)" fill="#747ded"></path></g><g id="Group_26755" data-name="Group 26755" transform="translate(0 25.073)"><path id="Path_36243" data-name="Path 36243" d="M368.2,348.17c2.732,11.536,11.731,29.16-.87,38.482-3.394,2.51-8.225,1.6-11.792-.365-4.666-2.57-9.19-10.5-11.336-15.244-1.7-3.758-2.368-8.524-3.714-12.487-1.455-4.281-2.994-8.533-4.415-12.826-5.119-15.474-3.178-31.343,6.379-44.705,3.247,4.35,7.433,7.362,11.6,11.049a52.77,52.77,0,0,1,5.394,5.449c2.883,3.421,3.44,7.973,4.234,12.163C364.853,335.881,366.745,342.028,368.2,348.17Z" transform="translate(-333.312 -301.024)" fill="url(#linear-gradient-2)"></path><path id="Path_36244" data-name="Path 36244" d="M364.417,386.372q-.469-1.4-.908-2.8c1.662-.778,2.954-2.53,4.014-3.9a28.114,28.114,0,0,0,3.97-7.909c.053-.149-.2-.236-.261-.093a31.293,31.293,0,0,1-4.174,7.043,18.988,18.988,0,0,1-3.845,3.9q-.517-1.682-.987-3.379c1.634-1.018,2.691-2.9,3.753-4.447a60.489,60.489,0,0,0,4.422-8.432.028.028,0,0,0-.05-.026c-2.251,4.053-4.4,9.331-8.344,12.1-.385-1.421-.754-2.845-1.085-4.276-.018-.075-.034-.149-.05-.224,4.39-3.577,5.941-9.048,8.282-13.978.038-.081-.077-.155-.119-.074-2.4,4.662-4.375,9.631-8.356,13.205-.464-2.051-.912-4.1-1.356-6.157a29.278,29.278,0,0,0,7.536-13.212.07.07,0,0,0-.133-.046c-1.679,4.908-4.361,8.525-7.593,12.378-.439-2.03-.881-4.061-1.349-6.086,1.5-1.865,3.28-3.4,4.493-5.5a17.477,17.477,0,0,0,2.382-6.674.1.1,0,0,0-.194-.025c-.834,4.794-4.108,7.691-6.893,11.306q-.661-2.826-1.417-5.633c3.043-4.159,6.517-8.316,6.825-13.713,0-.053-.077-.068-.084-.013-.609,5.11-4.107,8.816-7,12.791-.092-.332-.18-.665-.275-1q-.747-2.586-1.531-5.156a43.33,43.33,0,0,0,5.011-6.772,14.1,14.1,0,0,0,2.467-5.386.1.1,0,0,0-.192-.035c-.732,4.167-4.691,8.221-7.508,11.448q-.789-2.6-1.58-5.2c2.83-4.219,6.85-7.694,7.274-13.117a.127.127,0,0,0-.251-.031c-.683,5.092-4.539,8.359-7.267,12.339q-.487-1.613-.962-3.226c3.525-3.544,6.814-9.408,7.267-14.3a.21.21,0,0,0-.417-.056,26.318,26.318,0,0,1-7.1,13.5c-.506-1.746-1-3.5-1.467-5.255a.514.514,0,0,0,0-.173,26.9,26.9,0,0,0,4.083-5.461,16.434,16.434,0,0,0,2.95-7.051.225.225,0,0,0-.448-.036c-.319,4.252-3.751,8.6-6.864,11.615-.166-.643-.335-1.286-.494-1.931q-.353-1.45-.7-2.9c1.031-1.757,2.726-3.157,3.736-4.976a30.934,30.934,0,0,0,2.085-4.987.14.14,0,0,0-.259-.1,26.328,26.328,0,0,1-3.212,6.165c-.786,1.05-1.832,1.926-2.56,3.014-.377-1.583-.753-3.166-1.144-4.744.017-.011.031-.025.047-.038l.06-.014a.3.3,0,0,0,.213-.194c1.824-1.482,2.577-4,3.259-6.161a.042.042,0,0,0-.078-.029c-.831,2.026-1.792,4.288-3.474,5.775a.143.143,0,0,1-.025,0l-.159.046q-.483-1.925-1.01-3.836a.3.3,0,0,0,.1-.417,23.827,23.827,0,0,0,1.818-4,.084.084,0,0,0-.155-.064,19.462,19.462,0,0,1-2.029,3.539,80.643,80.643,0,0,0-2.613-7.761c-.093-.236-.442-.077-.358.159.9,2.488,1.65,5.013,2.334,7.557a24.222,24.222,0,0,1-5.316-3.3c-.077-.073-.2.029-.126.11a14.994,14.994,0,0,0,2.878,2.235,19.886,19.886,0,0,0,2.8,1.837c.36,1.369.7,2.744,1.024,4.124a7.692,7.692,0,0,1-4.495.282,7.609,7.609,0,0,1-4.548-3.664c-.123-.219-.481-.05-.354.167a8.679,8.679,0,0,0,4.175,3.686,8.163,8.163,0,0,0,5.354.1q.558,2.391,1.091,4.789a37.476,37.476,0,0,1-4.794-.986c-2.51-.608-4.41-1.86-6.764-2.763a.2.2,0,0,0-.151.361c2.227.891,4.032,2.136,6.39,2.77a26.538,26.538,0,0,0,5.447,1.194l.056.252c-.008.022-.021.042-.029.064a.257.257,0,0,0,.12.339c.34,1.533.682,3.064,1.038,4.592.021.095.047.19.07.286-3.928.025-9.968-.3-12.147-3.855-.208-.339-.695.008-.442.336,2.937,3.806,8.489,3.514,12.787,4.334q.625,2.583,1.329,5.143a21.152,21.152,0,0,1-7.236-.289c-2.189-.527-5.161-1.008-6.8-2.641-.052-.05-.124.032-.075.084,1.577,1.647,4.231,2.047,6.327,2.694a17.189,17.189,0,0,0,7.967.926.485.485,0,0,0,.092.215q.454,1.619.925,3.235c-4.073,1.53-10.967,1.1-14.363-.934-.015-.01-.028.014-.013.024,2.427,1.632,5.118,1.994,7.99,2.058,2.146.047,4.506.186,6.549-.586.584,1.991,1.178,3.982,1.768,5.973-2,.159-3.952.7-5.956.806a14.215,14.215,0,0,1-8.247-2.28c-.151-.092-.322.124-.169.223,4.739,3.061,9.247,2.509,14.591,1.993q.722,2.452,1.411,4.913c-4.092,1.029-10.016,1-13.435-1.379-.251-.174-.54.2-.287.379,2.174,1.531,4.857,1.89,7.462,1.973,1.877.06,4.562.358,6.436-.349.014.053.031.107.045.162.65,2.367,1.233,4.75,1.777,7.143-4.686.9-8.846-.947-13.248-2.436-.307-.1-.494.36-.187.469,4.53,1.611,8.752,3.549,13.594,2.669q.655,2.926,1.24,5.867a21.392,21.392,0,0,1-12.424-2.061c-.259-.131-.417.283-.166.416a22.989,22.989,0,0,0,12.742,2.406c.417,2.106.814,4.216,1.206,6.324-3.931,1.151-7.829.169-11.442-1.683-.084-.043-.16.1-.078.148,3.309,1.859,7.851,3.672,11.664,2.308q.188,1.01.374,2.021c.075.406.149.82.222,1.237a23,23,0,0,1-9.332-.126c-.088-.022-.114.11-.029.137a21.9,21.9,0,0,0,9.469.612c.218,1.276.434,2.59.665,3.926a16.8,16.8,0,0,0-2.519.084c-1.569.227-2.867-.23-4.4-.392-.141-.015-.192.2-.047.219,1.371.2,2.521.736,3.933.629,1.045-.079,2.082-.042,3.118-.061.927,5.291,2.138,10.809,4.846,15.042.6.939,2.4.421,2.167-.764C367.27,393.367,365.6,389.889,364.417,386.372Z" transform="translate(-332.593 -299.291)" fill="#747ded"></path></g><g id="Group_26756" data-name="Group 26756" transform="translate(22.41)"><path id="Path_36245" data-name="Path 36245" d="M388.479,346.323c.648,14.655,7.51,38.165-9.97,46.58-4.707,2.266-10.369.038-14.25-3.175-5.079-4.2-8.741-14.9-10.253-21.157-1.2-4.963-.906-10.91-1.625-16.039-.775-5.542-1.664-11.067-2.4-16.616-2.64-20,3.393-38.839,18.106-52.871,2.94,6.04,7.331,10.671,11.547,16.118a65.363,65.363,0,0,1,5.3,7.874c2.712,4.825,2.337,10.488,2.33,15.767C387.256,330.609,388.133,338.519,388.479,346.323Z" transform="translate(-349.382 -283.045)" fill="url(#linear-gradient-3)"></path><path id="Path_36246" data-name="Path 36246" d="M374.55,392.016q-.247-1.8-.456-3.613c2.2-.562,4.177-2.393,5.782-3.817a34.82,34.82,0,0,0,6.659-8.7c.1-.17-.183-.332-.3-.176a38.706,38.706,0,0,1-6.7,7.595c-1.47,1.2-3.585,3.083-5.578,3.849q-.238-2.167-.416-4.337c2.221-.86,3.941-2.9,5.591-4.539a74.924,74.924,0,0,0,7.328-9.225.035.035,0,0,0-.054-.043c-3.675,4.405-7.513,10.324-12.947,12.781-.139-1.816-.258-3.633-.329-5.45,0-.095-.006-.188-.01-.283,6.167-3.332,9.318-9.625,13.307-15.077.064-.088-.059-.2-.128-.117-3.993,5.114-7.547,10.7-13.215,14.119-.091-2.6-.159-5.2-.222-7.8a36.254,36.254,0,0,0,12.219-14.318.086.086,0,0,0-.149-.086c-3.178,5.578-7.275,9.355-12.1,13.29-.063-2.57-.131-5.14-.23-7.711,2.259-1.919,4.776-3.376,6.736-5.645a21.652,21.652,0,0,0,4.44-7.563.121.121,0,0,0-.23-.077c-2.123,5.638-6.775,8.4-11,12.151-.1-2.393-.236-4.785-.42-7.176,4.662-4.351,9.848-8.6,11.472-15.091.017-.064-.077-.1-.1-.035-1.924,6.071-7.036,9.768-11.472,13.93-.035-.425-.063-.851-.1-1.277-.2-2.209-.432-4.417-.667-6.623a53.47,53.47,0,0,0,7.659-7.072c1.659-1.8,3.458-3.616,4.246-5.976a.122.122,0,0,0-.227-.086c-1.853,4.895-7.606,8.908-11.777,12.177q-.358-3.341-.717-6.683c4.415-4.471,10.108-7.765,11.879-14.262a.156.156,0,0,0-.3-.093c-2.011,6.03-7.455,9.111-11.693,13.315q-.218-2.071-.421-4.143c5.106-3.491,10.461-9.858,12.144-15.7a.26.26,0,0,0-.494-.165,32.585,32.585,0,0,1-11.752,14.763c-.212-2.24-.409-4.482-.569-6.727a.616.616,0,0,0,.036-.212c2.34-1.383,4.387-3.8,6.23-5.694a20.333,20.333,0,0,0,5.217-7.889.278.278,0,0,0-.536-.146c-1.372,5.094-6.552,9.585-11.034,12.53-.053-.82-.11-1.64-.152-2.461q-.1-1.845-.177-3.69c1.661-1.9,4.046-3.207,5.694-5.185a38.435,38.435,0,0,0,3.69-5.578.173.173,0,0,0-.293-.185,32.654,32.654,0,0,1-5.33,6.752c-1.2,1.092-2.675,1.916-3.813,3.069-.089-2.012-.181-4.023-.291-6.033.024-.011.045-.024.067-.033l.077,0a.364.364,0,0,0,.3-.185c2.56-1.381,4.058-4.265,5.389-6.736a.052.052,0,0,0-.088-.054c-1.48,2.272-3.171,4.8-5.56,6.217-.011,0-.02,0-.031,0l-.205.02q-.14-2.454-.339-4.9a.368.368,0,0,0,.223-.482,29.717,29.717,0,0,0,3.136-4.44.1.1,0,0,0-.174-.113A24.174,24.174,0,0,1,368,298.705a99.879,99.879,0,0,0-1.381-10.041c-.06-.308-.52-.2-.473.112.513,3.231.845,6.476,1.088,9.727a29.978,29.978,0,0,1-5.7-5.245c-.078-.1-.252-.01-.18.106a18.536,18.536,0,0,0,2.982,3.383,24.662,24.662,0,0,0,2.982,2.883c.12,1.747.212,3.5.289,5.25a9.519,9.519,0,0,1-5.528-.7,9.415,9.415,0,0,1-4.68-5.507c-.1-.294-.575-.173-.47.121a10.729,10.729,0,0,0,4.223,5.447c2.092,1.374,4.161,1.457,6.486,1.357q.126,3.035.216,6.075a46.038,46.038,0,0,1-5.6-2.309c-2.912-1.319-4.93-3.281-7.582-4.924-.266-.165-.531.237-.268.406,2.5,1.6,4.407,3.53,7.126,4.846a32.834,32.834,0,0,0,6.345,2.711l.011.321c-.017.025-.035.046-.05.071a.319.319,0,0,0,.066.441c.06,1.94.12,3.881.2,5.821.006.121.014.243.02.364-4.782-.879-12.05-2.669-13.874-7.5a.345.345,0,1,0-.615.307c2.69,5.308,9.505,6.238,14.543,8.231q.159,3.284.424,6.56a26.146,26.146,0,0,1-8.73-2.028c-2.54-1.146-6.043-2.42-7.652-4.783-.052-.074-.159.01-.11.084,1.535,2.367,4.668,3.468,7.066,4.742a21.3,21.3,0,0,0,9.472,2.97.586.586,0,0,0,.063.282q.176,2.073.375,4.147c-5.308.915-13.59-1.2-17.245-4.463-.017-.015-.038.011-.022.026,2.574,2.547,5.762,3.609,9.239,4.351,2.6.555,5.433,1.27,8.1.8.248,2.558.51,5.115.766,7.671-2.471-.271-4.966-.07-7.427-.4a17.575,17.575,0,0,1-9.5-4.68c-.163-.146-.421.077-.258.233,5.052,4.818,10.661,5.189,17.277,5.8q.31,3.148.577,6.3c-5.211.3-12.407-1.106-16.012-4.789-.265-.269-.7.121-.438.395,2.288,2.365,5.468,3.422,8.616,4.126,2.268.508,5.462,1.492,7.9,1.067.007.068.013.138.018.206.243,3.028.4,6.061.506,9.1-5.906.008-10.535-3.2-15.542-6.029-.349-.2-.683.322-.336.526,5.135,3.008,9.819,6.341,15.909,6.394q.119,3.707.148,7.419a26.466,26.466,0,0,1-14.626-5.383c-.286-.219-.572.248-.3.467a28.468,28.468,0,0,0,14.934,5.875c.018,2.655.014,5.312,0,7.967-5.046.488-9.557-1.608-13.52-4.7-.092-.073-.22.085-.13.16,3.592,3.028,8.694,6.283,13.646,5.507q-.006,1.272-.014,2.544,0,.768-.017,1.555a28.471,28.471,0,0,1-11.317-2.314c-.1-.049-.165.107-.067.159a27.135,27.135,0,0,0,11.37,2.937c-.031,1.6-.073,3.249-.1,4.926a21.082,21.082,0,0,0-3.082-.481c-1.959-.086-3.432-.943-5.259-1.495-.167-.052-.28.2-.109.255,1.621.555,2.9,1.478,4.636,1.675,1.29.146,2.541.431,3.8.648-.1,6.647.1,13.635,2.41,19.407.512,1.28,2.824,1.07,2.811-.427C376.4,401.181,375.175,396.566,374.55,392.016Z" transform="translate(-348.423 -280.9)" fill="#747ded"></path></g><path id="Path_36247" data-name="Path 36247" d="M397.888,366.66l-.647,11.914-1.012,18.551-1.659,30.482H353.3l-1.659-30.482-1.012-18.551-.647-11.914Z" transform="translate(-326.734 -250.054)" fill="#95a8b5"></path><path id="Path_36248" data-name="Path 36248" d="M397.058,375.2l-.133,2.389-.133,2.472-.747,13.689H351.46l-.747-13.689-.133-2.472-.133-2.389Z" transform="translate(-326.551 -246.683)" fill="#a5b7c6"></path><path id="Path_36249" data-name="Path 36249" d="M396.888,376.916l-.133,2.472h-46.08l-.133-2.472Z" transform="translate(-326.514 -246.007)" fill="#95a8b5"></path></g></g></g></g><g id="Group_26761" data-name="Group 26761"><g id="Group_26760" data-name="Group 26760" transform="translate(376.834 77.446)"><g id="Group_26719-2" data-name="Group 26719"><rect id="Rectangle_3506-2" data-name="Rectangle 3506" width="112.025" height="69.052" fill="#606bf1"></rect></g><g id="Group_26720-2" data-name="Group 26720" transform="translate(25.78 13.575)"><path id="Path_36199-2" data-name="Path 36199" d="M274.991,100.806l-13.329,5.688,13.329,5.6-1.745,4.027-15.984-7.14v-4.941l15.984-7.183Z" transform="translate(-271.262 -86.608)" fill="#f9fbfc"></path><path id="Path_36201-2" data-name="Path 36201" d="M305.662,104.045v4.941l-15.986,7.14-1.742-4.027,13.286-5.6-13.286-5.688,1.742-3.944Z" transform="translate(-225.16 -86.608)" fill="#f9fbfc"></path></g></g><path id="Path_35515" data-name="Path 35515" d="M66.374,81.755l1.642-8.45c.371-1.907.062-3.33-.915-4.229-.947-.87-2.556-1.293-4.916-1.293H59.341l.813-4.187a.538.538,0,0,0-.528-.641H55.7a.538.538,0,0,0-.528.436l-1.744,8.971a5.047,5.047,0,0,0-1.174-2.593c-1.151-1.318-2.972-1.986-5.412-1.986H39.236a.539.539,0,0,0-.528.435L35.178,86.378a.538.538,0,0,0,.528.641h3.955a.538.538,0,0,0,.528-.436l.854-4.392h2.944a12.724,12.724,0,0,0,3.857-.5A7.549,7.549,0,0,0,50.676,80a8.7,8.7,0,0,0,1.672-2.077l-.7,3.628a.538.538,0,0,0,.528.641H56.1a.539.539,0,0,0,.528-.435l1.937-9.968h2.693c1.148,0,1.484.229,1.575.327s.255.405.062,1.4l-1.561,8.035a.539.539,0,0,0,.528.641h3.987a.537.537,0,0,0,.528-.434Zm-18.2-6.982A4.3,4.3,0,0,1,46.8,77.458a5.335,5.335,0,0,1-3.235.791H41.81l1.268-6.524h2.267c1.665,0,2.336.356,2.605.654A2.907,2.907,0,0,1,48.179,74.773Zm34.727-5c-1.151-1.318-2.972-1.986-5.412-1.986H69.887a.538.538,0,0,0-.528.435L65.83,86.378a.538.538,0,0,0,.528.641h3.956a.538.538,0,0,0,.528-.436L71.7,82.19H74.64a12.721,12.721,0,0,0,3.857-.5A7.543,7.543,0,0,0,81.327,80a8.437,8.437,0,0,0,2.649-4.742c.45-2.314.09-4.16-1.07-5.487Zm-3.851,5a4.3,4.3,0,0,1-1.381,2.685,5.337,5.337,0,0,1-3.235.791H72.686l1.267-6.524H76.22c1.665,0,2.336.356,2.606.654A2.91,2.91,0,0,1,79.055,74.773Z" transform="translate(376 33.056)" fill="#fff" fill-rule="evenodd"></path></g></g></svg>